<?xml version="1.0" encoding="UTF-8"?><svg xmlns="http://www.w3.org/2000/svg" viewBox="0 0 438.36 384.6"><defs><style>.f{fill:#be4d32;}.f,.g,.h,.i{fill-rule:evenodd;}.j{fill:#fff;}.g{fill:#a5372f;}.h{fill:#b62d2f;}.i,.k{fill:#a82928;}</style></defs><g id="a"/><g id="b"><g id="c"><rect class="j" width="438.36" height="384.6" rx="27.7" ry="27.7"/><g id="d"><g id="e"><polygon class="i" points="205.85 253.01 232.53 253.1 232.53 248.09 205.85 248.09 205.85 253.01"/><path class="f" d="M215.4,279.45s55.76-36.18,90.94-16.9v62.33s-42.65-23.23-90.66,18.76l-.28-64.18Z"/><path class="f" d="M310.5,280.77l.29,47.27s-25.93-10.83-50.68-3.95c0,0,39.65,.26,56.05,14.26l13.71-49.65s-6.86-7.4-19.38-7.92Z"/><path class="f" d="M330.48,303.22l-12.53,40.41s-36.07-28.79-83.48-7.66c0,0,52.48-12.42,86.76,17.42l21.77-43.31s-3.26-4.75-12.53-6.86Z"/><path class="f" d="M211.99,279.45s-55.76-36.18-90.94-16.9v62.33s42.65-23.23,90.66,18.76c0-3.09,2.9-7.53,.05-11.11l.04-8.79,.19-44.28Z"/><path class="f" d="M116.88,280.77l-.29,47.27s25.93-10.83,50.68-3.96c0,0-39.65,.26-56.05,14.26l-13.72-49.65s6.86-7.4,19.38-7.92Z"/><path class="f" d="M96.93,303.22l12.52,40.41s36.08-28.79,83.48-7.66c0,0-52.48-12.42-86.76,17.42l-21.78-43.31s3.28-4.75,12.54-6.86Z"/><path class="f" d="M73.93,322.2S10.19,196.39,104.62,100.77c94.42-95.61,208.91-16.36,223.08-3.78,14.17,12.58,95.6,98.13,36.59,223.94,0,0,44.79-92.89-18.85-185.25,0,0,40.14,74.62-26.43,136.2,0,0,73.92-82.45,2.94-162.3,0,0,32.3,42.8-18.61,92.38,0,0,65.29-71.88-37.86-121.41,0,0,37.05,11.96,8.64,55.41,0,0,31.97-54.11-52.92-64.41-69.03-2.29-64.19,48.1-60.8,58.94,0,0-18.09-29.86,5.54-48.22,0,0-86.31,39.35-33.93,113.45,0,0-42.1-34.44-13.22-89.75,0,0-87.91,96.73,25.98,181.65,0,0-100.32-50.95-53.7-153.48,0-.03-62.56,72.32-17.12,188.06Z"/><path class="f" d="M265.16,86.93S32.62,161.16,77.77,290.43c0,0-39.54-119.2,187.39-203.5Z"/><path class="f" d="M148.58,102.66s211.57-27.36,229.27,145.3c0,0,12.39-167.94-229.27-145.3Z"/><path class="f" d="M191.07,78.13s146.06,65.1,160.22,237.77c0,0-.89-132.1-160.22-237.77Z"/><path class="i" d="M230.95,192.25c1.33-2.08,2.11-4.46,2.28-6.92h7.54l.35,15.44-10.17-8.52Zm7.33,11.05h-20.47v-2.97c4-.5,7.74-2.27,10.66-5.04l9.81,8.01Zm2.49-21.45h-7.7c-.43-2.45-1.46-4.76-3-6.73l10.54-8.19,.16,14.92Zm-23.65-16.53h18.65l-8.57,6.95c-2.91-2.28-6.41-3.68-10.09-4.01l.02-2.94Zm0,6.67c2.55,.28,4.99,1.23,7.07,2.74,1.11,.8,2.08,1.77,2.87,2.88,.93,1.27,1.6,2.71,1.96,4.25,.18,.81,.27,1.63,.26,2.46,0,.36-.02,.71-.05,1.06-.14,1.52-.59,2.99-1.31,4.33-.64,1.16-1.46,2.22-2.42,3.14-2.13,1.99-4.81,3.29-7.68,3.73-.83,.13-1.67,.2-2.51,.2-.87,0-1.75-.07-2.61-.22-2.86-.46-5.52-1.77-7.63-3.75-.96-.92-1.78-1.98-2.4-3.15-.67-1.24-1.1-2.59-1.27-3.99-.14-1.27-.07-2.55,.22-3.79,.32-1.38,.88-2.69,1.67-3.87,.84-1.25,1.89-2.35,3.11-3.25,2.06-1.51,4.48-2.46,7.03-2.76,.63-.08,1.27-.12,1.91-.12,.6,0,1.2,.05,1.8,.12h0Zm-4.43,28.4v2.94h-20.46l9.65-7.91c2.98,2.77,6.77,4.5,10.81,4.95v.03Zm.7-35.04v2.92c-3.72,.29-7.27,1.65-10.23,3.92l-8.43-6.85h18.66Zm-23.5,1.65l10.38,8.05c-1.6,1.97-2.67,4.32-3.11,6.82h-7.42l.15-14.87Zm-.15,18.34h7.25c.19,2.52,1.01,4.96,2.39,7.08l-9.98,8.36,.35-15.44Zm-7.11,27.65h-24.92v-5.04h24.91v5.04Zm-21.01,15.68h-7.4v26.09s29.1,25.57,39.35,40.93c10.25,15.35,19.17,38.99,19.17,41.67,0,0,.22,.33-1.72,1.89-1.94,1.56-2.3,5.39,3.87,5.25h.83c6.16,.13,5.8-3.7,3.86-5.25s-1.7-1.89-1.7-1.89c0-2.68,8.93-26.32,19.17-41.67,10.25-15.35,39.32-40.93,39.32-40.93v-26.08h-8.48v-8.13l1.75-.85c1.87,.11,10.53,1.06,11.6-1.67s.66-9.97-.14-14.25c-.79-4.28-2.67-6.28-8-4.51-5.34,1.78-16.53,3.21-19.87,3.09-3.34-.12-2.54-1.66-2.54-3.56v-36.91s.67-3.32-2-3.2-67.01-.13-67.01-.13c0,0-1.85-.48-1.85,3.39v38.53s1.19,1.29-2.51,1.17c-3.7-.12-14.64-1.17-18.22-2.47s-7.51-3.87-9.1,1.41c-1.58,5.28-2.51,11.17-1.32,15.28,1.19,4.11,3.43,3.39,6.6,3.39s6.46-.35,6.33,2c0,.54-.02,3.36-.03,7.42h0Zm79.49,0v12.67h-52.25l-.14-5.09v-15.26h52.38v7.67Zm30.17-15.68h-24.9v-5.04h24.9v5.04Z"/><path class="i" d="M190,134.06s36.87,.3,52.61,0c15.75-.3,13.4-1.19,16.1-7.46,2.7-6.26-3.12-3.28-11.06-2.09-9.32,1.39-2.01-6.26-2.01-6.26,0,0,6.17-5.28,1.34-8.05-4.99-2.86-9.41,3.51-10.05,4.47-1.92,2.92-4.5,5.18-7.38,5.67-2.88,.49-9.59,.25-15.62,.25s-12.76,.55-15.94-2.12c-2.09-1.76-3.53-3.96-7.55-7.54-4.02-3.58-7.12,1.06-7.12,1.06-.98,1.52,1.76,4.82,2.68,5.97,1.7,2.09,4.69,10.44-5.7,6.27-10.39-4.17-8.5,1.35-6.03,6.27,2.33,4.65,15.73,3.56,15.73,3.56Z"/><path class="i" d="M169.39,153.5s86.74,.38,93.11,0c6.37-.38,7.72-3.48,11.98-7.24,4.26-3.76-1.11-8.81-4.74-5.77-4.09,3.42-6.93,4.84-11.87,5.09-4.94,.25-9.75-7.94-9.75-7.94h-65s-2.12,3.65-4.95,5.93c-2.83,2.28-7.93,2.02-11.89-.38-3.96-2.4-6.36-6.3-9.75-3.27-3.39,3.03,.85,6.55,5.09,10.2,4.24,3.66,7.77,3.38,7.77,3.38Z"/><polygon class="h" points="31.17 229.1 28.26 229.16 28.56 243.67 31.48 243.6 31.37 238.19 45.08 237.86 45 234.14 31.29 234.46 31.17 229.1"/><path class="h" d="M32.52,218.15l6.71-1.75-.3,4.56-6.41-2.82Zm9.64-2.57l3.49-.89,.27-4.01-16.98,4.97-.28,4.35,16.18,7.59,.26-3.92-3.34-1.5,.41-6.59Z"/><polygon class="h" points="46.02 221.1 48.69 221.44 49.04 218.33 46.37 217.99 46.02 221.1"/><path class="h" d="M33.42,201.04l.47-2.94c.18-1.15,.5-1.92,.92-2.38s1.04-.59,1.84-.45c.54,.08,1.06,.29,1.5,.63,.59,.54,.81,1.41,.62,2.58l-.55,3.43-4.8-.88Zm8.31-2.82c.33-2.08-.11-3.72-1.32-4.98-.79-.84-1.83-1.4-2.97-1.6-1.62-.3-3-.05-4.09,.74s-1.76,2.07-2.04,3.79l-1.27,8.05,16.4,3,.59-3.67-5.93-1.08,.64-4.23Z"/><path class="h" d="M40.33,165.54c-1.7,.97-2.89,2.6-3.58,4.94-.69,2.06-.52,4.32,.47,6.25,1.05,2.03,2.92,3.49,5.59,4.39,2.68,.9,4.97,.87,6.88-.1,1.83-.92,3.09-2.54,3.78-4.85,.62-1.83,.57-3.82-.16-5.61-.74-1.6-1.97-2.92-3.52-3.77l-1.06,3.55c.81,.45,1.45,1.16,1.81,2.02,.32,.88,.33,1.84,.04,2.72-.31,1.3-1.31,2.33-2.6,2.7-1.35,.31-2.76,.21-4.05-.3-2.03-.69-3.39-1.7-4.05-2.97-.51-.96-.6-2.08-.26-3.11,.37-1.27,1.01-2.12,1.89-2.52,.62-.25,1.29-.35,1.96-.3l1.06-3.56c-1.41-.46-2.94-.28-4.21,.49Z"/><polygon class="h" points="60.38 155.52 61.77 152.1 46.5 145.05 45.11 148.47 50.9 151.14 48.3 157.53 42.52 154.85 41.13 158.28 56.4 165.32 57.79 161.9 50.94 158.74 53.53 152.35 60.38 155.52"/><path class="h" d="M45.51,135.73l1.99,3.74,1.08-2.21-1.41-4.92-1.66,3.39Zm3.28,4.51l14.78,8.19,1.61-3.31-14.78-8.19-1.61,3.31Z"/><path class="h" d="M71.73,121.25c.76,.78,1.25,1.77,1.41,2.85,.15,1.02-.08,2.06-.64,2.92-.78,1.24-1.74,1.99-2.84,2.24-1.35,.32-2.91-.14-4.64-1.38-1.65-1.19-2.64-2.54-2.97-4.03-.29-1.3-.04-2.67,.71-3.77,.53-.93,1.43-1.58,2.47-1.78,.81-.17,1.42-.12,1.82,.17l1.96-3.08c-1.17-.81-2.65-1.05-4.02-.64-1.84,.44-3.42,1.7-4.73,3.76-1.48,2.35-1.89,4.72-1.23,7.11,.58,2.12,1.9,3.92,3.94,5.39,2.3,1.66,4.57,2.27,6.78,1.84,2.02-.39,3.76-1.64,4.79-3.42,.72-1.06,1.12-2.3,1.18-3.58-.03-.86-.15-1.71-.37-2.54l1.94,.92,1.31-2.06-7.45-5.36-3.91,6.18,2.34,1.7,2.16-3.4Z"/><polygon class="h" points="67.88 108.1 80.94 119.09 83.1 116.17 70.05 105.18 67.88 108.1"/><path class="h" d="M79.98,98.95l6.28,3.06-2.88,3.39-3.4-6.45Zm9.07,4.34l3.25,1.61,2.54-2.97-16.23-7.31-2.74,3.22,8.29,16.63,2.47-2.91-1.76-3.39,4.18-4.89Z"/><polygon class="h" points="74.47 91.17 75.3 95.37 76.95 93.62 77.01 88.47 74.47 91.17"/><path class="h" d="M91.77,86.08c.08-1.16,.6-2.25,1.45-3.04,.78-.79,1.86-1.22,2.97-1.18,1.45,.05,2.86,.91,4.24,2.57,1.37,1.66,2.06,3.28,1.95,4.83-.06,1.16-.58,2.24-1.43,3.03-.79,.81-1.88,1.26-3.01,1.22-1.46-.06-2.88-.93-4.28-2.6-1.4-1.67-1.98-3.26-1.88-4.81Zm4.36,10.75c1.4,.31,2.86,.16,4.17-.42,.98-.43,1.87-1.03,2.64-1.76,.78-.75,1.43-1.64,1.91-2.61,.69-1.35,.99-2.88,.85-4.39-.19-1.91-1.07-3.81-2.65-5.69s-3.25-3.02-5.01-3.44c-1.4-.31-2.86-.16-4.17,.42-.97,.42-1.86,1.02-2.63,1.75-.8,.76-1.46,1.65-1.95,2.64-.7,1.34-.99,2.86-.85,4.37,.19,1.91,1.06,3.81,2.64,5.67,1.58,1.86,3.26,3.04,5.05,3.45h0Z"/><path class="h" d="M113.96,66.38c.7-.57,1.61-.83,2.5-.73,1.22,.2,2.41,1.27,3.6,3.17,.79,1.16,1.28,2.5,1.45,3.9,.17,1.29-.41,2.57-1.49,3.31l-2.84,2.01-6.02-9.67,2.8-1.98Zm8,11.95c1.98-1.31,3.11-3.59,2.94-5.97-.13-2.09-.81-4.12-1.97-5.86-1.14-1.83-2.44-3.11-3.91-3.81-1.99-.96-4.04-.69-6.14,.79l-6.17,4.39,9.2,14.77,6.06-4.31Z"/><path class="h" d="M131.28,51.85l5.18,10.27c.47,.8,.62,1.74,.42,2.65-.22,.78-.85,1.47-1.86,2.05-.68,.43-1.53,.53-2.29,.28-.76-.24-1.4-.88-1.91-1.91l-5.12-10.13-3.17,1.81,5.23,10.35c.8,1.58,1.83,2.62,3.06,3.12,1,.36,2.08,.43,3.11,.2,.89-.19,1.75-.52,2.54-.97,1.95-1.12,3.19-2.45,3.74-3.97,.59-1.6,.36-3.39-.65-5.43l-5.13-10.13-3.17,1.81Z"/><polygon class="h" points="135.15 70.69 136.3 73.28 138.95 71.94 137.8 69.35 135.15 70.69"/><path class="h" d="M152.15,43.68c-1.78-.77-3.72-.7-5.85,.24-1.97,.8-3.5,2.4-4.2,4.4-.78,2.16-.63,4.63,.42,7.39,1.06,2.76,2.54,4.62,4.48,5.56,1.83,.91,3.81,.9,5.93-.03,1.74-.69,3.15-2.02,3.93-3.72,.69-1.68,.85-3.53,.45-5.3l-3.23,1.42c.2,.93,.1,1.9-.29,2.77-.41,.8-1.1,1.43-1.94,1.78-1.18,.58-2.58,.42-3.6-.39-.96-.73-1.76-1.9-2.38-3.5-.81-2.12-.95-3.85-.45-5.22,.34-1,1.1-1.81,2.07-2.22,1.14-.5,2.17-.52,3.02-.07,.59,.35,1.09,.84,1.47,1.41l3.23-1.42c-.55-1.42-1.66-2.54-3.07-3.11Z"/><polygon class="h" points="166.01 46.66 166.83 49.75 173.06 47.86 172.24 44.78 166.01 46.66"/><path class="h" d="M188.85,34.78c.65-.15,1.34-.13,1.97,.08,.5,.26,.82,.77,.85,1.33,.13,.59-.06,1.2-.48,1.63-.46,.41-1.04,.67-1.66,.74l-4.04,.71-.58-3.81,3.94-.68Zm1.5,6.7c.62-.13,1.27-.06,1.85,.2,.55,.29,.91,.84,.96,1.46,.17,.71,.04,1.46-.37,2.06-.49,.55-1.17,.9-1.9,.98l-4.24,.74-.72-4.66,4.42-.79Zm.42,7.83c1.21-.16,2.38-.52,3.48-1.06,1.17-.75,2.01-1.92,2.35-3.27,.16-.67,.18-1.36,.06-2.04-.1-.85-.42-1.66-.91-2.36-.57-.75-1.4-1.26-2.32-1.42,.47-.31,.85-.72,1.14-1.2,.41-.84,.53-1.8,.34-2.71-.14-1.06-.66-2.04-1.46-2.75-1.06-.89-2.47-1.17-4.29-.85l-8.05,1.4,2.68,17.48,6.98-1.22Z"/><path class="h" d="M204.67,33.6c.73-.85,1.78-1.37,2.91-1.43,1.11-.1,2.21,.28,3.03,1.04,1.11,.99,1.72,2.61,1.84,4.83,.13,2.22-.28,3.93-1.27,5.09-1.54,1.75-4.2,1.92-5.96,.39-1.11-1.02-1.72-2.64-1.85-4.88s.32-3.89,1.3-5.04Zm-2.82,11.32c.9,1.15,2.13,1.99,3.53,2.41,1,.31,2.05,.43,3.1,.37,1.05-.08,2.07-.35,3.02-.8,1.34-.61,2.46-1.62,3.22-2.88,.96-1.62,1.37-3.7,1.23-6.22s-.78-4.53-1.94-6.01c-.9-1.15-2.13-1.99-3.53-2.42-2.03-.63-4.22-.48-6.14,.42-1.34,.6-2.47,1.6-3.22,2.86-.96,1.62-1.38,3.68-1.23,6.19,.15,2.51,.8,4.56,1.96,6.06Z"/><path class="h" d="M206.72,48.45l.03,2.86,2.94-.03-.04-2.86-2.92,.03Zm-.11-24.58l-2.63,3.63,2.61-.03,1.47-2.04,1.51,2.01,2.61-.02-2.69-3.58-2.89,.03Z"/><path class="h" d="M238.82,41.4c-.25,1.05-.82,1.99-1.63,2.7-.75,.63-1.73,.93-2.71,.81-1.24-.05-2.41-.62-3.22-1.56-.92-1.1-1.3-2.77-1.11-4.98,.17-2.12,.79-3.7,1.86-4.74,.91-.9,2.17-1.33,3.44-1.17,1.05,.08,2.02,.61,2.64,1.46,.46,.48,.72,1.11,.75,1.78l3.48,.32c.1-1.49-.42-2.95-1.43-4.05-1.27-1.5-3.06-2.36-5.38-2.58-2.64-.25-4.79,.52-6.43,2.31-1.46,1.58-2.29,3.68-2.5,6.29-.24,2.97,.36,5.36,1.78,7.2,1.22,1.64,3.09,2.67,5.13,2.81,1.21,.15,2.44-.07,3.52-.64,.7-.45,1.34-.98,1.91-1.58l.19,2.25,2.32,.22,.78-9.55-6.96-.64-.25,3,3.84,.36Z"/><polygon class="h" points="247.71 31.42 245.07 48.92 248.52 49.52 251.16 32.01 247.71 31.42"/><path class="h" d="M261.1,38.2l.57,7.34-4.18-1.03,3.61-6.31Zm.88,10.56l.28,3.81,3.68,.91-1.95-18.67-3.97-.98-9.57,15.85,3.59,.88,1.9-3.28,6.04,1.48Z"/><polygon class="h" points="264.77 29.28 261.74 32.11 263.98 32.79 268.22 30.32 264.77 29.28"/><path class="h" d="M277.36,42.86c1-.49,2.16-.54,3.2-.14,1.07,.37,1.95,1.16,2.43,2.19,.67,1.36,.66,3.11,0,5.21-.66,2.1-1.69,3.52-3,4.18-.99,.5-2.14,.56-3.17,.15-1.09-.37-1.98-1.16-2.47-2.2-.67-1.39-.65-3.13,.03-5.26s1.66-3.46,2.98-4.13Zm-6.65,9.32c.42,1.43,1.25,2.71,2.4,3.67,.81,.69,1.74,1.23,2.74,1.6,.98,.36,2.03,.52,3.07,.49,1.45-.02,2.85-.49,4-1.36,1.46-1.11,2.59-2.86,3.35-5.25s.88-4.51,.36-6.36c-.42-1.43-1.26-2.7-2.4-3.65-.81-.68-1.72-1.22-2.72-1.59-1-.36-2.05-.53-3.11-.5-1.44,0-2.84,.47-4,1.33-1.47,1.11-2.58,2.84-3.35,5.23s-.88,4.53-.34,6.39Z"/><path class="h" d="M304.32,53.83c.84,.4,1.49,1.1,1.84,1.96,.42,1.23,.16,2.85-.82,4.9-.54,1.27-1.39,2.4-2.47,3.26-.98,.8-2.35,.9-3.43,.25l-3.03-1.64,4.92-10.35,2.99,1.62Zm-5.8,13.31c2.2,1.19,4.31,1.11,6.32-.21,1.53-1.03,2.8-2.59,3.81-4.72,.88-1.7,1.29-3.6,1.19-5.51-.2-2.32-1.43-4.09-3.67-5.31l-6.61-3.57-7.52,15.81,6.49,3.51Z"/><path class="h" d="M324.74,62.89l-5.89,9.83c-.56,.94-1.23,1.5-1.97,1.67-.74,.17-1.61-.07-2.58-.72-.7-.45-1.19-1.18-1.34-2-.15-.95,.08-1.92,.63-2.71l5.81-9.7-3.03-2.06-5.93,9.91c-.85,1.29-1.23,2.83-1.06,4.37,.19,1.1,.65,2.14,1.35,3,.58,.73,1.26,1.36,2.03,1.87,1.86,1.27,3.56,1.78,5.09,1.55,1.6-.23,2.97-1.32,4.13-3.25l5.81-9.7-3.04-2.06Z"/><polygon class="h" points="311.18 75.66 309.62 77.99 312.01 79.81 313.57 77.48 311.18 75.66"/><path class="h" d="M341.61,78.37c-.24-2.03-1.24-3.81-3.04-5.34-1.81-1.52-3.64-2.08-5.65-1.77-2.15,.32-4.1,1.65-5.85,4-1.75,2.34-2.54,4.64-2.38,6.88,.15,2.16,1.2,4.16,2.89,5.51,1.58,1.35,3.24,1.96,4.96,1.85,1.58-.11,3.1-.85,4.57-2.16l-2.74-2.32c-.65,.63-1.5,1.02-2.41,1.08-.89,0-1.75-.34-2.4-.94-1.06-.86-1.6-2.2-1.42-3.55,.2-1.43,.79-2.79,1.7-3.92,1.33-1.78,2.69-2.76,4.06-2.97,1.02-.16,2.06,.15,2.82,.85,.88,.67,1.44,1.68,1.53,2.78,0,.71-.14,1.41-.42,2.06l2.73,2.32c.91-1.26,1.29-2.83,1.06-4.37Z"/><polygon class="h" points="348.15 101.22 354.82 89.19 352.25 86.31 344.08 102.88 346.36 105.44 362.33 97.62 359.83 94.81 348.15 101.22"/><path class="h" d="M366.16,108.97l-3.89,6.09-2.64-3.6,6.53-2.49Zm-5.54,8.8l-2.04,3.16,2.33,3.17,9.49-15.83-2.52-3.42-16.78,5.93,2.27,3.09,3.42-1.27,3.83,5.18Z"/><polygon class="h" points="371.94 107.36 373.41 103.36 371.31 100.25 370.58 105.34 371.94 107.36"/><path class="h" d="M381.9,132.07c.49,.81,.68,1.77,.53,2.71-.27,1.27-1.33,2.49-3.2,3.63-1.11,.75-2.4,1.2-3.74,1.3-1.27,.07-2.46-.64-3-1.79l-1.7-3.14,3.85-2.37,1.94,3.58,2.49-1.53-1.94-3.58,3.09-1.9,1.68,3.1Zm-15.32,1.05l3.63,6.72c1.24,2.28,3.04,3.44,5.4,3.5,1.81,.03,3.67-.53,5.61-1.73,1.62-.92,2.94-2.28,3.81-3.92,1.02-2.07,.9-4.26-.36-6.58l-3.7-6.84-5.58,3.43-.54-.99-2.5,1.53,.53,.99-6.32,3.9Z"/><path class="h" d="M389.51,149.89l-5.13,4.92-1.77-4.17,6.9-.76Zm-7.35,7.14l-2.68,2.54,1.55,3.67,12.76-12.96-1.7-3.96-17.61,1.49,1.51,3.58,3.61-.38,2.56,6.03Z"/><polygon class="h" points="395.61 149.91 397.97 146.43 396.66 142.86 394.77 147.6 395.61 149.91"/><path class="h" d="M395.86,166.51c1,.58,1.73,1.52,2.03,2.63,.38,1.11,.32,2.32-.17,3.39-.62,1.4-1.93,2.43-3.91,3.14-1.98,.7-3.65,.68-4.92-.03-1-.56-1.73-1.5-2.03-2.61-.38-1.12-.33-2.35,.16-3.43,.64-1.4,1.95-2.44,3.95-3.14s3.58-.67,4.88,.05Zm-10.99-.03c-.82,1.26-1.26,2.73-1.27,4.24-.03,1.11,.13,2.22,.46,3.29,.33,1.05,.83,2.03,1.49,2.91,.85,1.19,2.05,2.09,3.44,2.58,1.7,.58,3.71,.47,5.93-.32,2.22-.79,3.9-1.97,4.96-3.53,.82-1.26,1.27-2.73,1.29-4.24,.02-1.11-.13-2.21-.45-3.27-.33-1.07-.84-2.07-1.5-2.97-.84-1.2-2.03-2.11-3.42-2.59-1.7-.57-3.69-.48-5.93,.31-2.25,.79-3.94,2-5,3.58Z"/><polygon class="h" points="404.82 201.6 407.69 201.04 405.21 186.77 402.33 187.34 403.26 192.67 389.78 195.34 390.42 199 403.9 196.33 404.82 201.6"/><path class="h" d="M405.12,212.64l-6.36,2.87-.39-4.56,6.75,1.69Zm-9.13,4.19l-3.32,1.47,.34,4.01,16.03-7.81-.37-4.33-17.12-4.73,.34,3.91,3.52,.9,.57,6.58Z"/><polygon class="h" points="391.37 212.04 388.69 212.16 388.81 215.29 391.49 215.17 391.37 212.04"/><path class="h" d="M406.03,230.58c.76,.89,1.16,2.03,1.12,3.2,.02,1.16-.41,2.28-1.2,3.14-1.01,1.11-2.57,1.63-4.66,1.6s-3.65-.6-4.66-1.73c-.77-.87-1.17-2.01-1.12-3.17-.02-1.18,.41-2.32,1.2-3.19,1.03-1.11,2.59-1.63,4.7-1.6s3.61,.64,4.62,1.75Zm-10.36-3.81c-1.18,.91-2.07,2.15-2.54,3.56-.36,1.05-.56,2.16-.57,3.28,0,1.11,.17,2.21,.52,3.26,.45,1.43,1.3,2.69,2.46,3.64,1.44,1.14,3.36,1.74,5.72,1.77,2.36,.03,4.29-.51,5.77-1.61,1.18-.91,2.07-2.15,2.54-3.57,.74-2.12,.76-4.42,.06-6.56-.42-1.43-1.27-2.7-2.43-3.64-1.44-1.14-3.34-1.74-5.7-1.77-2.36-.03-4.34,.5-5.81,1.64Z"/><path class="g" d="M385.76,365.9h15.05c10.02,0,17.94-8.35,17.96-18.38V36.5c0-10.03-7.94-18.37-17.96-18.39H37.56c-10.02,.01-17.94,8.35-17.95,18.39V347.51c0,10.03,7.94,18.37,17.95,18.38h14.87v5.77h-14.87c-12.75-.03-23.26-10.7-23.26-24.15V36.5c0-13.46,10.52-24.13,23.26-24.15H400.81c12.75,.03,23.26,10.69,23.26,24.15V347.51c0,13.46-10.52,24.13-23.27,24.15h-15.04v-5.77Z"/><path class="k" d="M72.35,371.92h-3.14l-4.1-14.54h2.86l2.82,10.23h.03l2.86-10.23h2.87l-4.21,14.54Z"/><path class="k" d="M77.63,357.38h2.77v14.54h-2.79l.02-14.54Z"/><path class="k" d="M82.87,357.38h9.48v2.69h-6.69v3.11h6.14v2.49h-6.14v3.56h6.84v2.69h-9.62v-14.54Z"/><path class="k" d="M97.17,360.07h-3.81v-2.69h10.38v2.69h-3.81v11.87h-2.79l.03-11.87Z"/><path class="k" d="M105.21,357.38h2.77l5.29,9.75h.03v-9.75h2.61v14.54h-2.79l-5.27-9.75h-.04v9.75h-2.61v-14.54Z"/><path class="k" d="M121.82,357.38h2.86l4.74,14.54h-2.89l-.96-3.24h-4.74l-1,3.24h-2.8l4.79-14.54Zm-.26,8.92h3.28l-1.6-5.34h-.04l-1.64,5.34Z"/><path class="k" d="M130.52,357.38h3.92l2.97,10h.04l2.8-10h3.92v14.54h-2.61v-10.31h-.03l-3.11,10.31h-2.15l-3.11-10.2h-.03v10.2h-2.61v-14.54Z"/><path class="k" d="M158.97,367.34c0,3.27-1.41,4.91-4.24,4.91-1.1,.03-2.16-.37-2.97-1.12-.81-.75-1.21-1.87-1.22-3.36v-1.27h2.54v.65c-.03,.62,.08,1.24,.34,1.8,.27,.43,.76,.67,1.27,.62,.3,.01,.59-.06,.85-.2,.22-.14,.38-.36,.45-.62,.08-.24,.13-.48,.15-.72,0-.2,.03-.48,.03-.85v-9.8h2.79v9.96Z"/><path class="k" d="M160.87,364.71c0-2.22,.57-4.05,1.7-5.51,2.02-2.51,5.68-2.91,8.19-.89,.33,.26,.63,.56,.89,.89,1.13,1.45,1.7,3.29,1.7,5.51,0,2.22-.57,4.02-1.7,5.39-2.07,2.51-5.78,2.86-8.29,.79-.29-.24-.55-.5-.79-.79-1.13-1.42-1.69-3.22-1.7-5.39Zm2.78,0c-.04,1.21,.25,2.4,.85,3.45,.92,1.43,2.82,1.85,4.25,.93,.37-.24,.69-.56,.93-.93,.59-1.05,.89-2.24,.85-3.45,.01-.82-.1-1.64-.33-2.44-.2-.7-.59-1.33-1.13-1.82-1.14-.98-2.83-.98-3.97,0-.53,.49-.92,1.12-1.13,1.82-.22,.79-.33,1.61-.32,2.44Z"/><path class="k" d="M185.98,366.42c0,1.93-.47,3.38-1.41,4.36-.94,.98-2.27,1.47-4,1.47s-3.08-.48-4-1.44c-.93-.96-1.39-2.42-1.39-4.38v-9.04h2.79v9.04c-.04,.8,.15,1.59,.54,2.29,.36,.58,1.05,.85,2.07,.85s1.65-.25,2.04-.74,.58-1.3,.58-2.42v-9.03h2.79v9.04Z"/><path class="k" d="M188.37,357.38h6.84c1.03-.04,2.01,.39,2.69,1.16,.69,.79,1.05,1.81,1.02,2.85,0,1.82-.67,3.03-2,3.65v.04c1.11,.36,1.72,1.49,1.84,3.39,0,.08,0,.28,.03,.61s.03,.59,.04,.78,.03,.42,.07,.73c.03,.26,.08,.51,.15,.76,.06,.19,.14,.38,.24,.55h-2.78c-.1-.32-.18-.65-.21-.99-.05-.39-.09-.85-.12-1.36s-.07-.89-.11-1.14c-.03-.61-.24-1.2-.61-1.7-.41-.37-.95-.56-1.5-.51h-2.78v5.68h-2.79v-14.53Zm2.78,6.58h3.05c.53,.04,1.06-.14,1.45-.5,.35-.45,.52-1.01,.47-1.58,0-1.34-.64-2.02-1.92-2.02h-3.05v4.09Z"/><path class="k" d="M201.17,357.38h2.77l5.29,9.75h.04v-9.75h2.61v14.54h-2.78l-5.27-9.75h-.03v9.75h-2.61v-14.54Z"/><path class="k" d="M217.8,357.38h2.87l4.74,14.54h-2.89l-.96-3.24h-4.75l-.99,3.24h-2.81l4.79-14.54Zm-.27,8.92h3.28l-1.6-5.34h-.03l-1.65,5.34Z"/><path class="k" d="M226.49,357.38h2.78v11.87h6.18v2.69h-8.96v-14.55Z"/><path class="k" d="M241.4,364.71c0-2.22,.57-4.05,1.7-5.51,2.02-2.51,5.69-2.91,8.2-.89,.33,.26,.63,.56,.89,.89,1.13,1.45,1.7,3.29,1.7,5.51s-.56,4.02-1.7,5.39c-2.07,2.51-5.79,2.86-8.3,.79-.29-.24-.55-.5-.79-.79-1.13-1.42-1.7-3.22-1.7-5.39Zm2.78,0c-.04,1.21,.25,2.4,.85,3.45,.92,1.43,2.83,1.85,4.26,.93,.37-.24,.69-.55,.93-.93,.59-1.05,.89-2.24,.85-3.45,0-.82-.1-1.64-.33-2.44-.2-.7-.59-1.33-1.13-1.82-1.14-.98-2.83-.98-3.97,0-.54,.49-.93,1.12-1.13,1.82-.23,.79-.33,1.61-.32,2.44Z"/><path class="k" d="M255.76,357.38h8.9v2.69h-6.11v3.36h5.31v2.48h-5.31v6.01h-2.78v-14.54Z"/><path class="k" d="M271.22,357.38h9.48v2.69h-6.69v3.11h6.14v2.49h-6.14v3.56h6.84v2.69h-9.62v-14.54Z"/><path class="k" d="M282.71,357.38h5.47c1.6-.05,3.13,.63,4.16,1.86,1.06,1.23,1.59,3.01,1.59,5.34,0,2.2-.49,3.98-1.47,5.33-.98,1.35-2.41,2.03-4.28,2.03h-5.47v-14.54Zm2.79,11.87h2.48c.87,.01,1.7-.38,2.25-1.06,.6-.71,.91-1.81,.91-3.3s-.28-2.75-.85-3.57-1.5-1.23-2.81-1.23h-1.98v9.17Z"/><path class="k" d="M306.62,366.42c0,1.93-.47,3.38-1.41,4.36-.94,.98-2.27,1.47-4,1.47s-3.07-.48-4-1.44-1.39-2.42-1.39-4.38v-9.04h2.78v9.04c-.04,.8,.15,1.59,.54,2.29,.36,.57,1.05,.85,2.07,.85s1.65-.25,2.04-.74c.39-.49,.58-1.3,.58-2.42v-9.03h2.78v9.04Z"/><path class="k" d="M317.46,362.27c-.08-.7-.42-1.34-.94-1.81-.49-.47-1.15-.74-1.83-.73-.73-.02-1.44,.24-1.99,.73-.53,.49-.92,1.12-1.13,1.82-.23,.79-.34,1.61-.33,2.44-.04,1.21,.25,2.4,.85,3.45,.53,.92,1.53,1.47,2.59,1.42,.76,.03,1.49-.29,1.98-.87,.53-.69,.84-1.52,.89-2.39h2.68c-.14,1.84-.72,3.28-1.72,4.34-1,1.06-2.4,1.63-3.85,1.59-1.77,.07-3.46-.72-4.54-2.12-1.13-1.41-1.69-3.21-1.7-5.39,0-2.22,.57-4.05,1.7-5.51,1.07-1.43,2.76-2.24,4.54-2.18,1.36-.03,2.68,.47,3.68,1.39,1.06,1.01,1.7,2.38,1.78,3.84h-2.68Z"/><path class="k" d="M325.63,357.38h2.86l4.74,14.54h-2.89l-.96-3.24h-4.74l-.99,3.24h-2.81l4.79-14.54Zm-.27,8.92h3.28l-1.61-5.34h0l-1.67,5.34Z"/><path class="k" d="M335.5,360.07h-3.81v-2.69h10.38v2.69h-3.81v11.87h-2.75v-11.87Z"/><path class="k" d="M343.53,357.38h2.79v14.54h-2.79v-14.54Z"/><path class="k" d="M348.22,364.71c0-2.22,.56-4.05,1.7-5.51,2.02-2.51,5.68-2.91,8.19-.89,.33,.26,.63,.56,.89,.89,1.13,1.45,1.7,3.29,1.7,5.51s-.56,4.02-1.7,5.39c-2.07,2.51-5.78,2.86-8.29,.79-.29-.24-.55-.5-.79-.79-1.13-1.42-1.7-3.22-1.7-5.39Zm2.79,0c-.04,1.21,.25,2.4,.85,3.45,.92,1.43,2.82,1.85,4.25,.93,.37-.24,.69-.56,.93-.93,.6-1.05,.89-2.24,.85-3.45,.01-.82-.1-1.64-.33-2.44-.2-.7-.59-1.33-1.13-1.82-1.14-.98-2.83-.98-3.97,0-.53,.49-.92,1.12-1.13,1.82-.22,.79-.33,1.61-.32,2.44Z"/><path class="k" d="M362.57,357.38h2.77l5.29,9.75h.04v-9.75h2.61v14.54h-2.79l-5.27-9.75h-.06v9.75h-2.61l.02-14.54Z"/></g></g></g></g></svg>